<svg width="259" height="96" viewBox="0 0 259 96" fill="none" xmlns="http://www.w3.org/2000/svg">
<g filter="url(#filter0_dd)">
<rect x="24" y="8" width="211" height="48" fill="#C40B0B"/>
<path d="M45.8883 27.4688L48.0797 33.6562L50.2594 27.4688H52.568V36H50.8043V33.668L50.9801 29.6426L48.6773 36H47.4703L45.1734 29.6484L45.3492 33.668V36H43.5914V27.4688H45.8883ZM59.175 34.2422H56.093L55.507 36H53.6379L56.8137 27.4688H58.4426L61.6359 36H59.7668L59.175 34.2422ZM56.5676 32.8184H58.7004L57.6281 29.625L56.5676 32.8184ZM65.2547 32.5781L64.3406 33.5625V36H62.5828V27.4688H64.3406V31.3359L65.1141 30.2754L67.2879 27.4688H69.45L66.4207 31.2598L69.5379 36H67.4461L65.2547 32.5781ZM75.4828 32.3027H72.1078V34.5879H76.0687V36H70.35V27.4688H76.057V28.8926H72.1078V30.9258H75.4828V32.3027ZM85.2047 34.2422H82.1227L81.5367 36H79.6676L82.8434 27.4688H84.4723L87.6656 36H85.7965L85.2047 34.2422ZM82.5973 32.8184H84.7301L83.6578 29.625L82.5973 32.8184ZM95.55 36H93.7922L90.3703 30.3867V36H88.6125V27.4688H90.3703L93.798 33.0938V27.4688H95.55V36ZM105.19 34.2422H102.108L101.522 36H99.6527L102.829 27.4688H104.457L107.651 36H105.782L105.19 34.2422ZM102.582 32.8184H104.715L103.643 29.625L102.582 32.8184ZM110.355 32.9941V36H108.598V27.4688H111.926C112.566 27.4688 113.129 27.5859 113.613 27.8203C114.102 28.0547 114.477 28.3887 114.738 28.8223C115 29.252 115.131 29.7422 115.131 30.293C115.131 31.1289 114.844 31.7891 114.27 32.2734C113.699 32.7539 112.908 32.9941 111.896 32.9941H110.355ZM110.355 31.5703H111.926C112.391 31.5703 112.744 31.4609 112.986 31.2422C113.232 31.0234 113.355 30.7109 113.355 30.3047C113.355 29.8867 113.232 29.5488 112.986 29.291C112.74 29.0332 112.4 28.9004 111.967 28.8926H110.355V31.5703ZM118.252 32.9941V36H116.494V27.4688H119.822C120.463 27.4688 121.025 27.5859 121.509 27.8203C121.998 28.0547 122.373 28.3887 122.634 28.8223C122.896 29.252 123.027 29.7422 123.027 30.293C123.027 31.1289 122.74 31.7891 122.166 32.2734C121.595 32.7539 120.804 32.9941 119.793 32.9941H118.252ZM118.252 31.5703H119.822C120.287 31.5703 120.64 31.4609 120.882 31.2422C121.129 31.0234 121.252 30.7109 121.252 30.3047C121.252 29.8867 121.129 29.5488 120.882 29.291C120.636 29.0332 120.296 28.9004 119.863 28.8926H118.252V31.5703ZM131.398 31.9277C131.398 32.7676 131.249 33.5039 130.952 34.1367C130.655 34.7695 130.23 35.2578 129.675 35.6016C129.124 35.9453 128.491 36.1172 127.777 36.1172C127.07 36.1172 126.439 35.9473 125.884 35.6074C125.329 35.2676 124.9 34.7832 124.595 34.1543C124.29 33.5215 124.136 32.7949 124.132 31.9746V31.5527C124.132 30.7129 124.282 29.9746 124.583 29.3379C124.888 28.6973 125.316 28.207 125.866 27.8672C126.421 27.5234 127.054 27.3516 127.765 27.3516C128.476 27.3516 129.107 27.5234 129.657 27.8672C130.212 28.207 130.64 28.6973 130.941 29.3379C131.245 29.9746 131.398 30.7109 131.398 31.5469V31.9277ZM129.616 31.541C129.616 30.6465 129.456 29.9668 129.136 29.502C128.816 29.0371 128.359 28.8047 127.765 28.8047C127.175 28.8047 126.72 29.0352 126.4 29.4961C126.079 29.9531 125.917 30.625 125.913 31.5117V31.9277C125.913 32.7988 126.073 33.4746 126.394 33.9551C126.714 34.4355 127.175 34.6758 127.777 34.6758C128.366 34.6758 128.82 34.4453 129.136 33.9844C129.452 33.5195 129.613 32.8438 129.616 31.957V31.541ZM134.694 36H132.936V27.4688H134.694V36ZM143.416 36H141.659L138.237 30.3867V36H136.479V27.4688H138.237L141.664 33.0938V27.4688H143.416V36ZM151.348 28.8926H148.734V36H146.977V28.8926H144.398V27.4688H151.348V28.8926ZM154.802 27.4688L156.994 33.6562L159.173 27.4688H161.482V36H159.718V33.668L159.894 29.6426L157.591 36H156.384L154.088 29.6484L154.263 33.668V36H152.505V27.4688H154.802ZM168.3 32.3027H164.925V34.5879H168.886V36H163.167V27.4688H168.874V28.8926H164.925V30.9258H168.3V32.3027ZM177.005 36H175.247L171.825 30.3867V36H170.067V27.4688H171.825L175.253 33.0938V27.4688H177.005V36ZM184.936 28.8926H182.323V36H180.565V28.8926H177.987V27.4688H184.936V28.8926Z" fill="white"/>
<path d="M235 56H192L208.7 8H235V56Z" fill="#E30B0B"/>
<path d="M219 37.9334L218.06 36.9934L221.78 33.2667H213.667V31.9334H221.78L218.06 28.2067L219 27.2667L224.333 32.6001L219 37.9334Z" fill="white"/>
</g>
<defs>
<filter id="filter0_dd" x="0" y="0" width="259" height="96" filterUnits="userSpaceOnUse" color-interpolation-filters="sRGB">
<feFlood flood-opacity="0" result="BackgroundImageFix"/>
<feColorMatrix in="SourceAlpha" type="matrix" values="0 0 0 0 0 0 0 0 0 0 0 0 0 0 0 0 0 0 127 0" result="hardAlpha"/>
<feOffset dy="16"/>
<feGaussianBlur stdDeviation="12"/>
<feColorMatrix type="matrix" values="0 0 0 0 0.14902 0 0 0 0 0.14902 0 0 0 0 0.14902 0 0 0 0.2 0"/>
<feBlend mode="multiply" in2="BackgroundImageFix" result="effect1_dropShadow"/>
<feColorMatrix in="SourceAlpha" type="matrix" values="0 0 0 0 0 0 0 0 0 0 0 0 0 0 0 0 0 0 127 0" result="hardAlpha"/>
<feOffset dy="8"/>
<feGaussianBlur stdDeviation="8"/>
<feColorMatrix type="matrix" values="0 0 0 0 0.14902 0 0 0 0 0.14902 0 0 0 0 0.14902 0 0 0 0.24 0"/>
<feBlend mode="multiply" in2="effect1_dropShadow" result="effect2_dropShadow"/>
<feBlend mode="normal" in="SourceGraphic" in2="effect2_dropShadow" result="shape"/>
</filter>
</defs>
</svg>
