<svg width="17" height="18" viewBox="0 0 17 18" fill="none" xmlns="http://www.w3.org/2000/svg">
<path fill-rule="evenodd" clip-rule="evenodd" d="M8.17504 2.02246C5.5843 2.02246 3.48895 4.24824 3.48895 7.00024C3.48895 10.7336 8.17504 16.2447 8.17504 16.2447C8.17504 16.2447 12.8611 10.7336 12.8611 7.00024C12.8611 4.24824 10.7658 2.02246 8.17504 2.02246ZM4.82783 7.00024C4.82783 5.03757 6.32738 3.44468 8.17504 3.44468C10.0227 3.44468 11.5222 5.03757 11.5222 7.00024C11.5222 9.04824 9.59426 12.1131 8.17504 14.026C6.7826 12.1274 4.82783 9.02691 4.82783 7.00024ZM6.50144 7.00024C6.50144 6.0184 7.25074 5.22246 8.17504 5.22246C8.77296 5.22246 9.32546 5.56131 9.62442 6.11135C9.92338 6.6614 9.92338 7.33909 9.62442 7.88913C9.32546 8.43918 8.77296 8.77802 8.17504 8.77802C7.25074 8.77802 6.50144 7.98208 6.50144 7.00024Z" fill="#C40B0B"/>
</svg>
