<svg width="17" height="18" viewBox="0 0 17 18" fill="none" xmlns="http://www.w3.org/2000/svg">
<path fill-rule="evenodd" clip-rule="evenodd" d="M6.83714 1.33398H9.5149C9.88309 1.33398 10.1843 1.65398 10.1843 2.0451C10.1843 2.43621 9.88309 2.75621 9.5149 2.75621H6.83714C6.46894 2.75621 6.1677 2.43621 6.1677 2.0451C6.1677 1.65398 6.46894 1.33398 6.83714 1.33398ZM8.84546 9.86733C8.84546 10.2584 8.54421 10.5784 8.17602 10.5784C7.80783 10.5784 7.50658 10.2584 7.50658 9.86733V7.02288C7.50658 6.63177 7.80783 6.31177 8.17602 6.31177C8.54421 6.31177 8.84546 6.63177 8.84546 7.02288V9.86733ZM12.8822 5.87799L13.3842 5.34465C13.6386 5.07443 13.6453 4.62643 13.3842 4.3491L13.3775 4.34199C13.1165 4.06465 12.7014 4.07176 12.4403 4.34199L11.9382 4.87532C10.9006 3.99354 9.5952 3.46732 8.17599 3.46732C4.96267 3.46732 2.23135 6.28332 2.15102 9.69666C2.06399 13.3091 4.78861 16.2673 8.17599 16.2673C11.5098 16.2673 14.201 13.4016 14.201 9.86732C14.201 8.35977 13.7056 6.9731 12.8822 5.87799ZM3.48993 9.86732C3.48993 12.6193 5.58528 14.8451 8.17602 14.8451C10.7668 14.8451 12.8621 12.6193 12.8621 9.86732C12.8621 7.11532 10.7668 4.88954 8.17602 4.88954C5.58528 4.88954 3.48993 7.11532 3.48993 9.86732Z" fill="#C40B0B"/>
</svg>
